<?xml version="1.0" standalone="no"?>
<!DOCTYPE svg PUBLIC "-//W3C//DTD SVG 20010904//EN"
 "http://www.w3.org/TR/2001/REC-SVG-20010904/DTD/svg10.dtd">
<svg version="1.0" xmlns="http://www.w3.org/2000/svg"
 width="16.000000pt" height="16.000000pt" viewBox="0 0 16.000000 16.000000"
 preserveAspectRatio="xMidYMid meet">
<metadata>
Created by potrace 1.11, written by Peter Selinger 2001-2013
</metadata>
<g transform="translate(0.000000,16.000000) scale(0.000387,-0.000387)"
fill="#000000" stroke="none">
<path d="M20369 41296 c-2 -2 -52 -7 -112 -10 -59 -4 -115 -9 -125 -11 -10 -2
-48 -6 -84 -9 -37 -4 -75 -8 -85 -10 -22 -4 -85 -14 -138 -22 -33 -5 -321 -63
-391 -79 -83 -19 -325 -93 -454 -138 -500 -175 -948 -418 -1385 -749 -49 -37
-216 -175 -280 -232 -126 -112 -389 -379 -455 -462 -8 -11 -40 -49 -70 -85
-335 -401 -624 -894 -815 -1395 -76 -197 -191 -585 -220 -743 -6 -32 -13 -68
-20 -101 -3 -14 -8 -41 -11 -60 -2 -19 -7 -46 -10 -60 -2 -14 -6 -36 -9 -49
-2 -13 -7 -49 -11 -80 -4 -31 -8 -63 -9 -71 -1 -8 -5 -46 -9 -85 -4 -38 -10
-81 -12 -95 -21 -133 -21 -777 0 -910 3 -14 7 -56 11 -95 7 -81 21 -186 35
-265 5 -30 12 -71 15 -90 21 -136 97 -440 159 -638 41 -129 143 -401 158 -419
6 -7 8 -13 5 -13 -3 0 17 -48 44 -107 98 -208 148 -304 264 -503 35 -60 204
-317 226 -343 5 -7 41 -55 80 -107 129 -172 261 -322 439 -500 96 -97 196
-194 221 -215 130 -112 159 -136 258 -213 110 -86 340 -244 471 -324 438 -267
940 -471 1460 -593 257 -60 558 -104 840 -121 93 -6 528 -6 600 0 25 2 92 7
150 11 58 4 107 9 110 11 3 1 37 5 75 9 39 3 77 8 85 10 8 2 38 7 65 11 28 3
59 8 70 10 11 3 36 7 55 10 19 3 76 14 125 25 50 11 101 22 115 25 121 23 540
150 627 190 17 8 36 14 42 14 6 0 19 4 29 10 9 5 46 21 82 36 160 64 451 208
577 285 36 21 67 39 69 39 10 0 264 167 364 239 357 260 699 582 945 891 33
41 62 77 65 80 14 12 153 205 216 300 147 217 307 506 403 725 13 28 29 64 36
80 93 207 242 660 272 825 2 14 10 50 18 80 7 30 16 72 19 92 3 21 10 57 15
80 5 24 12 64 15 90 3 26 8 58 10 70 6 27 14 79 21 145 3 27 8 64 10 83 26
222 27 870 1 1030 -3 14 -7 54 -11 90 -3 36 -8 74 -10 85 -2 11 -7 40 -10 65
-3 25 -7 56 -10 70 -3 14 -7 41 -10 60 -3 19 -9 58 -15 85 -10 51 -16 81 -25
125 -4 20 -32 132 -49 195 -1 6 -6 26 -10 45 -4 19 -21 78 -38 130 -146 470
-337 882 -594 1280 -92 143 -297 421 -359 486 -5 6 -35 40 -65 75 -353 408
-845 811 -1295 1059 -33 18 -76 42 -95 53 -218 121 -535 257 -810 347 -133 44
-339 102 -400 114 -14 2 -54 11 -90 20 -36 8 -83 18 -105 21 -22 4 -48 8 -57
11 -10 3 -28 7 -40 9 -13 2 -57 9 -98 15 -41 6 -86 13 -100 16 -14 2 -72 8
-130 14 -58 6 -121 13 -140 16 -41 6 -696 15 -701 10z"/>
<path d="M4229 32526 c-2 -2 -38 -7 -79 -10 -114 -9 -232 -28 -380 -61 -151
-34 -518 -177 -572 -223 -10 -8 -18 -12 -18 -9 0 8 -172 -99 -260 -161 -250
-176 -488 -428 -653 -691 -73 -116 -191 -363 -236 -492 -62 -177 -111 -397
-129 -569 -15 -154 -7 -535 13 -641 3 -13 7 -40 10 -60 5 -34 24 -120 45 -209
33 -141 101 -321 180 -481 59 -120 129 -241 143 -247 4 -2 7 -9 7 -14 0 -14
126 -183 195 -263 306 -352 712 -616 1140 -743 78 -23 392 -100 475 -117 8 -2
42 -10 75 -18 33 -9 71 -18 85 -21 14 -2 57 -12 95 -21 39 -9 81 -19 94 -21
14 -3 28 -7 31 -9 4 -2 22 -7 41 -10 19 -3 59 -12 89 -20 30 -8 66 -16 80 -18
14 -3 52 -12 85 -21 33 -8 121 -29 195 -45 74 -17 194 -45 265 -62 72 -17 141
-33 155 -35 14 -3 72 -17 130 -30 58 -14 116 -28 130 -30 14 -3 79 -18 145
-34 117 -28 138 -33 200 -45 17 -3 46 -10 65 -15 19 -5 46 -11 60 -14 14 -3
43 -10 65 -15 22 -5 51 -12 65 -15 14 -2 126 -28 250 -56 124 -28 236 -54 250
-56 14 -3 61 -14 105 -24 99 -24 313 -71 340 -75 11 -2 52 -11 90 -20 39 -9
79 -19 90 -21 11 -2 34 -7 50 -11 17 -4 32 -7 35 -8 15 -3 78 -16 95 -19 11
-2 50 -11 86 -20 69 -16 74 -17 169 -36 30 -5 82 -17 115 -25 57 -13 312 -68
365 -78 14 -3 79 -17 145 -31 332 -70 405 -86 426 -90 13 -2 56 -11 94 -20 39
-8 82 -17 95 -20 14 -2 115 -23 225 -46 110 -22 211 -43 225 -46 14 -2 36 -7
50 -10 14 -3 36 -8 50 -10 14 -3 83 -16 154 -30 71 -14 139 -28 150 -30 12 -2
44 -8 72 -14 28 -6 64 -13 80 -16 16 -3 74 -14 129 -25 55 -11 111 -23 125
-25 14 -3 72 -14 130 -25 91 -18 149 -29 285 -54 47 -9 231 -43 320 -60 192
-36 456 -85 490 -90 11 -1 101 -17 200 -34 99 -18 203 -36 230 -41 28 -5 64
-11 80 -14 40 -7 430 -73 480 -81 97 -16 156 -25 245 -40 52 -8 122 -19 155
-25 33 -5 71 -11 85 -14 14 -3 47 -8 74 -11 27 -3 51 -7 55 -9 3 -2 35 -7 70
-10 36 -4 67 -8 70 -10 3 -2 29 -6 56 -10 28 -3 59 -8 70 -10 11 -2 40 -7 65
-10 25 -3 54 -8 66 -10 11 -2 47 -7 79 -10 32 -4 61 -8 64 -10 3 -2 31 -7 61
-11 30 -4 64 -8 75 -10 11 -1 43 -6 70 -9 28 -4 91 -13 140 -21 50 -8 110 -16
135 -19 25 -3 61 -8 80 -10 19 -3 103 -15 185 -26 83 -11 182 -24 220 -30 39
-5 93 -12 120 -15 28 -3 61 -7 75 -10 14 -2 48 -7 75 -10 28 -3 66 -7 85 -10
19 -2 58 -7 85 -10 28 -3 64 -8 80 -10 17 -2 51 -7 78 -10 76 -8 140 -16 167
-20 14 -2 57 -7 95 -11 39 -4 79 -8 90 -10 11 -1 25 -3 30 -3 7 -1 10 -53 8
-143 -4 -366 -14 -1001 -18 -1163 -5 -260 -16 -737 -20 -900 -9 -363 -16 -602
-20 -730 -2 -77 -7 -221 -10 -320 -5 -174 -8 -265 -20 -575 -11 -313 -15 -419
-20 -525 -2 -60 -7 -173 -10 -250 -7 -158 -12 -284 -19 -430 -3 -55 -7 -154
-11 -220 -3 -66 -7 -160 -10 -210 -3 -49 -7 -135 -10 -190 -8 -163 -15 -296
-19 -365 -3 -36 -7 -117 -11 -180 -3 -63 -8 -140 -10 -170 -2 -30 -7 -104 -10
-165 -3 -60 -8 -132 -9 -160 -2 -27 -7 -104 -11 -170 -4 -66 -9 -136 -10 -155
-1 -19 -5 -84 -9 -145 -4 -60 -9 -128 -11 -150 -2 -22 -7 -85 -10 -140 -4 -55
-8 -122 -11 -149 -2 -27 -6 -83 -9 -125 -7 -109 -15 -208 -20 -266 -6 -67 -16
-188 -20 -250 -3 -55 -15 -200 -20 -255 -2 -19 -7 -73 -10 -120 -3 -47 -8 -96
-10 -110 -2 -14 -6 -63 -10 -110 -3 -47 -8 -101 -10 -120 -2 -19 -7 -69 -10
-110 -6 -74 -7 -87 -20 -205 -3 -33 -8 -85 -10 -115 -2 -30 -7 -71 -9 -90 -3
-19 -8 -66 -11 -105 -3 -38 -8 -88 -11 -110 -2 -22 -6 -67 -9 -100 -4 -54 -7
-78 -20 -181 -3 -18 -7 -63 -10 -100 -3 -38 -8 -80 -10 -94 -2 -14 -6 -54 -10
-90 -4 -36 -8 -76 -10 -90 -3 -23 -8 -72 -20 -185 -2 -22 -10 -94 -19 -160 -8
-66 -18 -145 -21 -175 -3 -30 -8 -71 -10 -90 -3 -19 -7 -55 -10 -80 -3 -25 -7
-61 -10 -80 -3 -19 -7 -53 -10 -75 -2 -22 -11 -94 -20 -160 -9 -66 -18 -136
-20 -155 -7 -58 -14 -111 -25 -180 -5 -36 -12 -87 -15 -115 -4 -27 -8 -61 -11
-75 -2 -14 -8 -61 -14 -105 -6 -44 -13 -92 -16 -107 -3 -22 -15 -103 -60 -408
-3 -19 -7 -46 -10 -60 -2 -14 -6 -43 -9 -65 -3 -22 -10 -62 -15 -90 -5 -27
-12 -67 -15 -87 -11 -83 -17 -118 -37 -228 -11 -63 -22 -133 -24 -155 -3 -22
-9 -56 -14 -75 -5 -19 -11 -57 -15 -85 -3 -27 -8 -57 -11 -66 -2 -10 -6 -30
-8 -45 -2 -16 -11 -67 -20 -114 -8 -47 -18 -101 -21 -120 -3 -19 -17 -91 -30
-160 -13 -69 -26 -136 -29 -150 -7 -44 -19 -105 -22 -120 -9 -36 -57 -277 -69
-340 -6 -33 -12 -60 -19 -90 -3 -14 -8 -36 -10 -50 -9 -51 -116 -541 -156
-710 -22 -96 -42 -184 -44 -195 -2 -11 -32 -130 -66 -265 -34 -135 -63 -252
-65 -260 -2 -8 -13 -53 -25 -100 -12 -47 -23 -92 -25 -100 -2 -8 -18 -67 -35
-130 -18 -63 -34 -123 -35 -133 -2 -10 -9 -32 -14 -50 -6 -18 -40 -138 -77
-267 -183 -657 -455 -1503 -699 -2175 -19 -55 -44 -125 -55 -155 -30 -90 -269
-732 -325 -875 -13 -33 -53 -139 -90 -235 -37 -96 -83 -215 -102 -265 -19 -49
-46 -119 -60 -155 -14 -36 -30 -78 -37 -95 -7 -16 -19 -46 -26 -65 -6 -19 -16
-44 -21 -55 -5 -11 -25 -63 -44 -115 -34 -90 -299 -715 -351 -828 -13 -29 -24
-55 -24 -57 0 -3 -9 -24 -19 -48 -48 -104 -130 -398 -146 -527 -4 -30 -9 -62
-10 -71 -8 -43 -18 -207 -18 -304 -1 -206 20 -389 68 -584 26 -106 101 -338
115 -356 4 -5 11 -21 15 -35 15 -49 145 -301 171 -331 8 -8 14 -18 14 -22 0
-3 24 -41 52 -82 298 -435 713 -762 1208 -954 176 -68 331 -106 525 -129 83
-10 595 -9 675 1 83 11 300 54 365 74 121 36 211 66 220 74 5 5 15 9 22 9 12
0 41 13 192 81 128 59 318 180 466 297 68 54 270 251 330 322 116 137 237 323
326 500 58 118 559 1357 559 1385 0 3 8 24 19 48 22 49 148 374 168 432 7 22
18 49 23 60 13 30 191 498 255 675 31 85 61 164 66 175 4 11 18 47 29 80 12
33 25 69 30 80 18 45 108 291 176 485 18 52 52 147 74 210 23 63 43 122 45
130 2 8 10 33 19 55 26 67 149 435 240 720 48 149 95 295 106 325 10 30 23 71
28 90 6 19 28 94 50 165 90 290 215 724 317 1100 44 163 225 871 231 905 3 14
7 33 10 42 3 9 6 25 8 35 2 10 9 38 16 63 7 25 13 52 15 60 2 8 11 47 20 85 9
39 18 77 20 85 1 8 30 137 64 286 33 149 63 284 65 300 7 34 6 33 40 187 14
65 28 133 32 150 3 18 25 131 49 252 24 121 46 234 49 250 10 58 37 201 46
245 6 25 12 59 15 75 3 17 7 44 10 60 16 84 35 194 41 225 11 66 23 135 39
225 15 87 20 114 30 173 2 15 13 81 24 147 11 66 23 138 26 160 2 22 7 51 10
65 2 13 7 42 10 65 3 22 10 65 15 95 5 30 12 73 15 95 24 163 36 242 40 255 2
8 6 40 10 70 3 30 7 66 10 80 2 14 6 41 9 60 2 19 8 56 11 83 l7 47 818 0
c771 0 819 -1 824 -17 3 -10 8 -38 11 -63 3 -25 8 -57 10 -71 5 -26 8 -51 20
-144 3 -27 8 -57 10 -65 2 -8 7 -35 10 -60 9 -67 31 -214 40 -260 2 -14 7 -45
10 -70 3 -25 10 -67 15 -95 5 -27 12 -68 15 -90 3 -22 10 -65 15 -95 11 -64
58 -351 66 -395 2 -16 9 -56 15 -87 5 -32 12 -70 15 -85 2 -16 9 -50 14 -78 5
-27 11 -61 14 -75 2 -14 16 -90 31 -170 15 -80 29 -156 31 -170 2 -14 7 -36 9
-50 3 -14 8 -38 11 -55 3 -16 11 -61 19 -100 8 -38 16 -81 19 -95 10 -56 109
-543 132 -650 56 -257 76 -348 89 -405 47 -202 68 -292 71 -310 4 -21 18 -78
59 -245 15 -58 28 -116 31 -130 3 -14 7 -32 10 -40 3 -8 9 -33 14 -55 8 -38
68 -274 131 -515 57 -213 140 -514 196 -705 30 -104 57 -199 60 -210 3 -11 30
-101 60 -200 30 -99 56 -187 58 -195 6 -24 134 -431 150 -475 8 -22 43 -130
79 -240 67 -209 299 -887 323 -945 3 -8 7 -19 9 -25 3 -12 122 -344 131 -365
3 -8 7 -19 9 -25 7 -26 397 -1064 414 -1100 5 -11 54 -139 110 -285 55 -146
105 -274 110 -285 5 -11 20 -49 34 -85 31 -83 274 -698 286 -725 11 -25 66
-163 92 -230 10 -27 23 -59 28 -70 5 -11 21 -49 36 -85 117 -286 328 -602 539
-804 89 -85 142 -133 185 -166 25 -19 47 -37 50 -40 29 -31 339 -230 359 -230
4 0 32 -13 62 -29 156 -84 440 -177 664 -216 158 -28 195 -30 465 -30 294 0
396 8 547 41 37 8 79 17 93 20 89 18 301 100 461 180 259 130 470 283 674 489
114 115 285 321 285 343 0 6 4 12 8 14 5 1 26 31 48 66 183 292 297 585 359
927 3 17 8 50 11 75 3 25 8 56 11 70 9 42 12 462 3 515 -5 28 -11 70 -14 95
-3 25 -10 70 -16 100 -6 30 -13 69 -16 85 -11 62 -83 301 -110 362 -20 46 -23
54 -202 473 -88 206 -220 528 -292 715 -139 356 -159 408 -190 490 -10 28 -92
246 -183 485 -416 1103 -803 2260 -1007 3015 -5 17 -15 55 -24 85 -39 140
-109 398 -116 430 -5 19 -44 177 -88 350 -65 256 -112 446 -167 690 -28 123
-123 553 -130 590 -6 30 -19 93 -20 100 -2 7 -17 82 -20 100 -2 8 -6 26 -9 40
-3 14 -8 36 -10 50 -3 14 -14 75 -26 135 -12 61 -24 119 -26 130 -2 11 -9 44
-15 74 -6 30 -12 64 -14 75 -4 30 -14 84 -25 136 -11 54 -37 200 -46 255 -3
22 -12 74 -20 115 -15 80 -18 102 -34 195 -5 33 -12 69 -14 80 -2 11 -7 40
-11 65 -4 25 -9 52 -10 61 -2 9 -6 34 -9 55 -4 22 -20 122 -36 224 -36 230
-36 232 -55 360 -9 58 -18 116 -20 130 -2 14 -7 45 -10 70 -3 25 -9 70 -15
100 -5 30 -11 75 -14 100 -4 25 -8 56 -10 70 -3 14 -7 45 -10 70 -4 25 -8 56
-10 70 -3 14 -17 117 -31 230 -14 113 -28 219 -30 235 -5 37 -22 172 -30 240
-4 28 -8 61 -10 75 -2 14 -6 48 -9 75 -3 28 -8 70 -12 95 -3 25 -7 63 -9 85
-3 22 -7 56 -9 75 -5 33 -12 98 -21 180 -7 63 -17 144 -20 170 -2 14 -7 59
-10 100 -4 41 -8 82 -10 90 -1 8 -6 51 -10 94 -4 43 -8 86 -10 96 -2 9 -6 48
-10 86 -3 39 -8 83 -10 99 -2 17 -6 64 -10 105 -3 41 -8 86 -10 100 -2 14 -6
61 -10 105 -3 44 -8 91 -10 105 -3 14 -7 57 -10 95 -3 39 -7 88 -9 110 -2 22
-7 78 -11 125 -4 47 -8 92 -10 100 -1 8 -6 60 -9 115 -4 55 -9 111 -11 125 -5
29 -13 132 -29 360 -4 52 -9 106 -11 120 -2 14 -6 68 -10 120 -3 52 -8 115
-10 140 -3 25 -7 80 -10 123 -10 154 -16 233 -20 277 -3 25 -7 88 -11 140 -11
191 -24 379 -29 447 -3 28 -7 100 -10 160 -3 59 -7 135 -10 168 -3 33 -7 105
-10 160 -3 55 -8 129 -10 165 -3 36 -7 115 -10 175 -3 61 -8 142 -10 180 -3
39 -7 124 -10 190 -3 66 -7 154 -10 195 -2 41 -7 131 -10 200 -4 69 -8 159
-10 200 -2 41 -7 145 -10 230 -3 85 -8 189 -10 232 -4 73 -9 178 -20 468 -3
74 -7 182 -10 240 -10 257 -25 727 -40 1240 -3 113 -7 279 -10 370 -14 499
-32 1426 -40 2033 -3 302 -2 327 13 328 9 0 24 2 33 4 21 4 123 16 178 21 24
2 61 6 82 9 22 3 56 7 77 10 20 2 73 9 117 14 44 6 104 13 134 16 30 4 61 8
70 10 9 1 45 6 81 10 36 3 72 8 80 10 8 2 40 7 70 9 30 3 64 7 75 10 11 2 47
7 80 10 33 4 71 9 85 11 14 2 45 7 70 10 25 3 56 8 70 10 14 2 48 6 75 10 28
3 75 10 105 15 30 5 78 12 105 15 28 3 64 8 80 10 17 3 62 10 100 15 39 6 86
13 105 15 30 4 89 13 201 31 14 2 43 6 65 9 21 2 50 7 64 9 25 5 75 13 146 21
22 3 64 10 94 15 56 10 102 17 155 25 17 2 55 8 85 14 30 6 75 13 100 16 25 4
99 15 165 26 66 11 131 22 145 24 14 2 68 11 120 20 52 9 106 18 120 20 14 2
79 14 145 25 66 12 136 23 155 26 19 2 42 6 50 9 8 2 31 7 50 10 19 3 46 7 60
10 14 3 41 7 60 10 39 7 241 42 280 50 13 3 42 7 65 10 22 3 48 8 58 11 11 4
29 7 40 9 28 3 131 22 222 40 39 7 86 16 106 19 20 3 42 8 50 10 8 3 32 8 54
11 22 3 146 26 275 51 129 25 246 47 260 49 14 3 36 7 50 10 22 5 77 16 150
30 14 3 36 7 50 10 14 2 41 7 60 10 19 3 51 10 70 15 19 5 53 11 75 15 22 3
47 7 55 10 8 2 26 6 40 9 31 5 389 77 410 81 33 8 207 44 235 49 17 3 64 13
105 21 41 9 89 19 105 21 17 3 55 12 85 19 30 7 69 16 85 18 17 3 41 8 55 11
14 3 36 8 50 10 14 2 45 9 70 15 35 8 371 80 450 96 71 15 360 77 380 82 14 3
30 7 35 8 6 2 44 10 85 19 41 9 147 32 235 51 88 20 169 37 180 39 11 3 29 7
40 9 11 3 83 19 161 36 77 17 179 40 225 50 46 11 99 23 118 26 19 3 37 8 41
10 4 2 21 7 38 10 18 3 112 23 210 45 97 22 187 42 199 45 13 2 26 6 30 8 5 3
24 8 43 11 19 3 76 15 125 27 50 11 97 22 105 24 8 2 54 12 102 24 48 11 98
23 110 25 20 4 79 17 138 31 43 11 198 46 219 51 12 2 53 12 90 20 71 17 73
18 111 27 14 3 77 18 140 32 63 15 122 28 130 30 8 2 47 11 85 20 39 9 79 19
89 21 18 3 80 18 321 75 44 11 90 21 103 24 31 7 41 9 192 45 136 32 155 37
188 44 9 2 35 9 57 14 22 6 51 13 65 15 14 3 52 13 85 22 411 117 767 325
1060 619 153 154 223 238 333 402 112 168 239 437 297 634 24 79 54 195 60
230 3 19 10 58 15 85 26 140 33 227 34 415 0 85 -3 196 -7 245 -8 90 -10 106
-22 180 -3 22 -8 54 -11 70 -29 180 -143 513 -230 673 -15 26 -40 72 -57 102
-28 51 -173 268 -186 280 -3 3 -32 37 -64 77 -85 105 -270 279 -399 376 -191
143 -388 252 -613 340 -144 56 -348 110 -490 131 -23 4 -50 8 -62 10 -136 27
-565 27 -693 1 -14 -3 -44 -7 -66 -10 -51 -6 -141 -25 -306 -64 -69 -17 -137
-33 -150 -35 -13 -3 -165 -39 -338 -80 -173 -41 -326 -77 -340 -79 -14 -3 -52
-12 -85 -21 -33 -8 -159 -38 -280 -66 -121 -28 -227 -53 -235 -55 -8 -2 -46
-11 -85 -20 -38 -9 -80 -19 -93 -21 -21 -4 -97 -22 -277 -64 -44 -11 -91 -21
-105 -23 -14 -3 -45 -10 -70 -17 -25 -7 -56 -14 -70 -16 -14 -3 -52 -11 -85
-19 -87 -21 -197 -46 -223 -51 -12 -2 -62 -14 -110 -25 -48 -12 -98 -23 -112
-26 -14 -2 -101 -22 -195 -43 -251 -57 -585 -132 -650 -144 -11 -3 -63 -14
-115 -26 -52 -12 -106 -24 -120 -26 -14 -3 -33 -7 -42 -10 -10 -3 -28 -7 -40
-9 -13 -3 -171 -36 -353 -75 -342 -74 -791 -168 -835 -176 -14 -2 -36 -7 -50
-10 -14 -3 -35 -8 -46 -10 -12 -2 -66 -13 -120 -25 -55 -11 -108 -22 -119 -23
-11 -2 -29 -6 -40 -9 -11 -3 -36 -9 -55 -12 -19 -3 -91 -17 -160 -31 -69 -14
-136 -28 -150 -30 -14 -2 -36 -7 -50 -10 -14 -3 -36 -8 -50 -10 -14 -2 -36 -7
-50 -10 -35 -8 -52 -12 -94 -18 -19 -3 -55 -10 -78 -15 -24 -6 -59 -12 -78
-16 -19 -3 -55 -10 -80 -15 -25 -5 -106 -21 -180 -35 -74 -14 -146 -27 -160
-30 -14 -3 -38 -8 -55 -10 -56 -10 -224 -42 -265 -50 -14 -2 -41 -7 -60 -10
-19 -4 -53 -10 -75 -15 -22 -5 -58 -11 -80 -14 -22 -4 -62 -11 -90 -16 -27 -5
-63 -12 -80 -15 -16 -3 -41 -7 -55 -10 -14 -3 -106 -19 -205 -35 -99 -17 -187
-33 -195 -35 -8 -2 -37 -7 -65 -10 -27 -4 -58 -8 -67 -11 -23 -7 -45 -11 -98
-18 -25 -3 -54 -8 -65 -10 -11 -2 -36 -6 -55 -10 -19 -3 -44 -8 -55 -10 -11
-2 -42 -7 -68 -10 -27 -4 -58 -9 -70 -12 -12 -2 -39 -6 -62 -9 -22 -3 -47 -8
-55 -10 -8 -2 -33 -6 -55 -10 -52 -7 -72 -11 -185 -29 -52 -9 -113 -18 -135
-21 -22 -3 -51 -7 -65 -10 -14 -3 -41 -7 -60 -10 -19 -2 -64 -8 -100 -14 -36
-6 -83 -13 -105 -16 -22 -4 -51 -8 -65 -10 -14 -2 -74 -11 -135 -20 -60 -9
-121 -18 -135 -20 -14 -2 -45 -7 -70 -10 -25 -3 -56 -8 -70 -10 -14 -2 -45 -7
-70 -10 -25 -3 -56 -8 -70 -10 -58 -9 -197 -28 -225 -30 -16 -2 -43 -6 -60 -9
-16 -3 -55 -8 -85 -11 -30 -3 -66 -8 -80 -10 -27 -4 -92 -13 -152 -20 -99 -12
-128 -16 -193 -25 -38 -5 -91 -12 -117 -15 -110 -12 -145 -16 -173 -20 -16 -2
-57 -7 -90 -10 -33 -4 -71 -8 -85 -10 -14 -2 -52 -7 -85 -10 -33 -3 -94 -10
-135 -15 -41 -5 -102 -12 -135 -15 -63 -6 -109 -11 -188 -20 -27 -3 -70 -8
-95 -10 -88 -7 -187 -17 -202 -20 -8 -2 -55 -6 -105 -10 -49 -4 -101 -8 -115
-10 -14 -2 -61 -7 -105 -10 -44 -3 -96 -8 -115 -10 -19 -3 -70 -7 -114 -10
-43 -3 -99 -8 -125 -10 -68 -6 -164 -13 -266 -20 -49 -3 -110 -8 -135 -10 -25
-3 -83 -7 -130 -10 -47 -3 -116 -7 -155 -10 -146 -10 -298 -18 -525 -29 -74
-4 -166 -9 -205 -11 -667 -38 -2071 -48 -2790 -20 -49 2 -169 6 -266 10 -255
9 -453 18 -634 30 -38 3 -119 7 -180 10 -60 4 -135 8 -165 10 -30 2 -102 7
-160 10 -58 4 -121 8 -140 10 -19 2 -75 6 -125 10 -49 3 -106 8 -125 10 -19 2
-78 7 -130 10 -52 4 -111 8 -130 10 -19 2 -71 6 -115 10 -44 3 -91 8 -105 10
-14 2 -65 6 -114 10 -50 4 -97 8 -106 10 -8 2 -53 6 -100 10 -47 3 -96 8 -110
10 -14 2 -54 6 -90 10 -99 9 -161 16 -200 20 -19 2 -64 6 -100 10 -36 3 -76 8
-90 10 -14 2 -52 7 -85 10 -55 5 -87 8 -185 20 -19 3 -57 7 -85 10 -27 3 -66
8 -85 10 -19 3 -57 7 -85 10 -58 6 -103 12 -160 20 -22 3 -58 7 -80 9 -22 3
-71 9 -110 15 -38 5 -97 13 -130 17 -33 3 -69 8 -80 10 -11 2 -44 6 -73 10
-29 3 -62 7 -74 9 -11 3 -46 7 -77 11 -31 3 -63 8 -73 9 -9 2 -38 6 -65 10
-97 13 -118 16 -143 20 -14 2 -45 6 -70 9 -25 3 -54 8 -65 10 -11 2 -42 7 -70
10 -27 4 -61 9 -75 11 -14 2 -74 11 -135 20 -165 24 -177 26 -210 31 -16 3
-46 7 -65 10 -19 2 -60 8 -90 14 -30 5 -72 11 -92 14 -95 14 -119 18 -203 32
-49 8 -103 17 -120 20 -16 2 -55 9 -85 14 -30 5 -73 12 -95 15 -23 3 -52 7
-65 10 -25 5 -65 12 -110 19 -14 2 -41 7 -60 10 -19 3 -48 8 -65 11 -16 3 -95
16 -175 30 -80 13 -163 27 -185 30 -22 4 -47 8 -55 10 -8 2 -31 7 -50 10 -19
3 -82 14 -140 25 -58 11 -122 22 -144 26 -21 3 -48 8 -60 10 -82 16 -238 45
-271 50 -22 3 -58 9 -80 14 -22 5 -56 11 -75 15 -34 5 -102 18 -190 36 -25 5
-56 11 -70 13 -27 4 -249 47 -265 50 -5 2 -32 7 -60 11 -27 5 -52 10 -55 10
-3 1 -23 5 -45 10 -22 4 -49 9 -60 12 -11 2 -51 10 -90 17 -77 15 -528 105
-560 113 -11 2 -31 6 -45 9 -65 12 -427 87 -525 109 -60 13 -126 27 -145 30
-19 3 -98 19 -175 36 -77 17 -151 33 -165 35 -14 3 -63 14 -110 24 -116 26
-369 81 -400 86 -14 3 -61 13 -105 23 -44 11 -93 22 -110 25 -57 12 -70 15
-145 31 -41 9 -84 18 -95 21 -44 8 -654 145 -710 159 -33 8 -71 16 -85 19 -14
3 -106 23 -205 46 -99 23 -187 43 -195 45 -8 2 -67 15 -130 30 -63 14 -142 32
-175 40 -136 32 -507 118 -605 141 -58 13 -114 26 -125 28 -11 3 -49 12 -85
21 -36 9 -76 18 -90 21 -14 3 -72 17 -130 31 -58 14 -116 27 -130 30 -14 2
-68 15 -120 27 -92 23 -256 62 -299 71 -11 3 -29 7 -38 9 -127 31 -282 69
-298 72 -11 2 -40 8 -65 14 -56 12 -151 28 -210 35 -25 4 -58 8 -75 11 -37 6
-411 15 -416 10z"/>
</g>
</svg>
