<svg version="1.1"
     xmlns="http://www.w3.org/2000/svg">

    <symbol id="leaf" viewBox="0 0 100 100">
		 <path d="M88.3,42.3c-2.8,13.6-11.5,22.4-23.7,28.4c-5.9,3-12.5,4.7-19.1,4.7c-4.2,0-8.5-0.7-12.5-2.1
			c-2.1-0.7-6.3-3.5-8-3.5c-2.2,0-4.8,8.9-8.6,8.9c-2.8,0-3.6-1.4-4.8-3.4c-0.4-0.7-0.7-1-0.7-1.9c0-4.5,8.6-8.1,8.6-10.6
			c0-0.4-1.1-2.7-1.3-3.6c-0.3-1.5-0.4-3-0.4-4.5c0-13.9,11-23.8,23.5-27.9c9-3,28,0.5,34.1-5.3c2.4-2.2,3.6-4.3,7.3-4.3
			c4.9,0,6.5,12.8,6.5,16.5C89.1,36.6,88.8,39.5,88.3,42.3z M64,39.7c-15.5,0-25.4,6.5-35.5,17.6c-0.5,0.6-0.8,1.2-0.8,2
			c0,1.5,1.3,2.8,2.8,2.8c0.8,0,1.4-0.3,2-0.8c2.1-1.9,4.1-4,6.2-6c7.9-7.1,14.7-10,25.4-10c1.5,0,2.8-1.3,2.8-2.8S65.5,39.7,64,39.7
			z"/>
	</symbol>

    <symbol id="home" viewBox="0 0 100 100">
        <path d="M82.1,55.3c-0.2,0.3-0.6,0.4-0.9,0.5c0,0-0.1,0-0.1,0c-0.3,0-0.7-0.1-0.9-0.3L50,30.3L19.9,55.4
            c-0.3,0.2-0.7,0.3-1,0.3c-0.3,0-0.7-0.2-0.9-0.5L15.2,52c-0.5-0.6-0.4-1.5,0.2-2L46.7,24c1.8-1.5,4.8-1.5,6.6,0l10.6,8.9v-8.5
            c0-0.8,0.6-1.4,1.4-1.4h8.4c0.8,0,1.4,0.6,1.4,1.4v17.8l9.5,7.9c0.6,0.5,0.7,1.4,0.2,2L82.1,55.3z M75.1,76c0,1.5-1.3,2.8-2.8,2.8
            H55.6V62H44.4v16.7H27.7c-1.5,0-2.8-1.3-2.8-2.8V55.1c0-0.1,0-0.2,0-0.3l25-20.6l25,20.6c0,0.1,0,0.2,0,0.3V76z"/>
    </symbol>
     
</svg>
