<?xml version="1.0" encoding="utf-8"?>
<!-- Generator: Adobe Illustrator 19.0.0, SVG Export Plug-In . SVG Version: 6.00 Build 0)  -->
<svg version="1.1" id="Layer_1" xmlns="http://www.w3.org/2000/svg" xmlns:xlink="http://www.w3.org/1999/xlink" x="0px" y="0px"
	 width="1000px" height="1000px" viewBox="0 0 1000 1000" style="enable-background:new 0 0 1000 1000;" xml:space="preserve">
<style type="text/css">
	.st0{fill:#00A651;}
	.st1{fill:#FFFFFF;}
</style>
<circle id="XMLID_41_" class="st0" cx="495.8" cy="496.7" r="408.7"/>
<g id="XMLID_40_">
	<path id="XMLID_60_" class="st1" d="M509.1,218.3c-5.2-4.5-11.2-6.7-17.1-6.7s-11.9,2.2-17.1,6.7L237.4,455.7
		c-4.5,5.2-7.4,11.2-7.4,17.9c0,13.4,10.4,23.8,23.8,23.8h142.9v262c0,13.4,10.4,23.8,23.8,23.8h142.9c13.4,0,23.8-10.4,23.8-23.8
		v-262h142.9c9.7,0,18.6-6,22.3-14.9c3.7-8.9,1.5-18.6-5.2-26L509.1,218.3z"/>
</g>
<g id="XMLID_1_">
</g>
<g id="XMLID_2_">
</g>
<g id="XMLID_3_">
</g>
<g id="XMLID_4_">
</g>
<g id="XMLID_5_">
</g>
<g id="XMLID_6_">
</g>
</svg>
