<?xml version="1.0" standalone="no"?>
<!DOCTYPE svg PUBLIC "-//W3C//DTD SVG 20010904//EN"
 "http://www.w3.org/TR/2001/REC-SVG-20010904/DTD/svg10.dtd">
<svg version="1.0" xmlns="http://www.w3.org/2000/svg"
 width="16.000000pt" height="16.000000pt" viewBox="0 0 16.000000 16.000000"
 preserveAspectRatio="xMidYMid meet">
<metadata>
Created by potrace 1.11, written by Peter Selinger 2001-2013
</metadata>
<g transform="translate(0.000000,16.000000) scale(0.002286,-0.002286)"
fill="#000000" stroke="none">
<path d="M3428 6385 c-2 -1 -61 -5 -132 -9 -71 -3 -138 -8 -150 -11 -11 -2
-41 -6 -66 -9 -298 -34 -664 -153 -960 -311 -338 -182 -670 -462 -907 -765
-55 -71 -183 -258 -183 -267 0 -4 -6 -14 -14 -22 -21 -23 -157 -293 -190 -376
-15 -38 -32 -79 -36 -90 -50 -125 -118 -383 -145 -550 -21 -131 -30 -260 -30
-445 0 -163 11 -375 20 -390 2 -3 6 -26 9 -50 3 -25 10 -70 16 -100 6 -30 13
-66 16 -80 13 -67 67 -256 99 -345 210 -580 579 -1057 1090 -1408 131 -89 314
-191 445 -248 52 -22 109 -47 125 -54 88 -38 421 -132 530 -149 32 -5 88 -13
145 -21 182 -26 537 -26 728 1 90 12 114 16 202 35 122 26 115 24 185 43 63
16 219 68 320 107 107 40 377 183 495 262 63 42 164 115 223 163 149 118 376
346 447 448 8 12 23 30 33 41 25 27 176 256 219 330 46 80 131 258 153 320 10
28 22 55 25 60 9 12 72 207 93 285 26 93 53 227 63 300 3 25 7 52 9 60 20 75
28 537 12 675 -6 56 -32 225 -41 270 -25 122 -74 303 -96 358 -5 12 -26 67
-46 122 -56 148 -177 382 -276 531 -48 72 -93 138 -100 145 -7 8 -26 32 -43
54 -122 165 -351 385 -560 540 -316 233 -766 431 -1130 495 -33 5 -71 12 -85
15 -24 5 -58 10 -140 20 -64 8 -367 25 -372 20z"/>
</g>
</svg>
